<svg xmlns="http://www.w3.org/2000/svg" width="14" height="16" viewBox="0 0 14 16" fill="none">
<path fill-rule="evenodd" clip-rule="evenodd" d="M1.10734 0.0465349C0.831076 0.113971 0.654972 0.207826 0.442619 0.400757C0.218264 0.604598 0.0840303 0.840579 0.0304334 1.12543C0.00346248 1.2688 -0.00460809 3.28921 0.00239331 8.12689L0.0122573 14.9268L0.0878242 15.1081C0.238096 15.4685 0.565851 15.7761 0.948858 15.9161L1.15042 15.9898L6.89294 15.9981C10.9088 16.004 12.6896 15.9963 12.8155 15.9727C13.3935 15.8641 13.851 15.4345 13.9601 14.8976C14.0133 14.6359 14.0133 1.36778 13.9601 1.10604C13.8538 0.583276 13.4408 0.179595 12.8757 0.0461598C12.6971 0.00398455 11.9882 -0.00151792 6.98055 0.000295398C2.18921 0.00201492 1.25971 0.0093307 1.10734 0.0465349ZM12.8467 0.739378C13.0233 0.825041 13.1568 0.965823 13.2051 1.11733C13.231 1.19846 13.239 3.2808 13.2319 8.06948L13.2218 14.9058L13.1168 15.0414C13.059 15.1159 12.9426 15.2121 12.8581 15.2551L12.7044 15.3332H6.99641H1.28837L1.15042 15.2659C0.977243 15.1815 0.875464 15.0834 0.807175 14.9352C0.759544 14.8319 0.753785 14.0846 0.753785 8.00183C0.753785 1.91906 0.759544 1.17179 0.807175 1.06846C0.894744 0.87844 1.05771 0.752634 1.30541 0.68379C1.35294 0.670597 3.93718 0.662155 7.04815 0.665094L12.5464 0.670261C12.6504 0.670358 12.7531 0.693987 12.8467 0.739378ZM1.69587 1.701C1.46955 1.79022 1.47552 1.72829 1.48593 3.87407L1.49469 5.68286C1.49509 5.7651 1.53002 5.8434 1.59095 5.89863C1.65248 5.95441 1.73255 5.9853 1.8156 5.9853H6.99641H12.1772C12.2603 5.9853 12.3403 5.95441 12.4019 5.89863C12.4628 5.8434 12.4977 5.7651 12.4981 5.68285L12.5069 3.87407C12.5173 1.71926 12.5243 1.78863 12.2894 1.69965C12.1161 1.63403 1.86245 1.63531 1.69587 1.701ZM11.7822 3.83589L11.7732 5.32875H6.99641H2.21959L2.21063 3.83589L2.20169 2.34304H6.99641H11.7911L11.7822 3.83589ZM1.70225 7.03014C1.66431 7.04465 1.60223 7.08779 1.56429 7.12603C1.49907 7.19175 1.49531 7.23955 1.49531 8.00439V8.68422C1.49531 8.76641 1.53005 8.84477 1.59095 8.89995C1.65248 8.95574 1.73256 8.98665 1.81562 8.98665H2.58174H3.34785C3.43091 8.98665 3.51099 8.95574 3.57252 8.89995C3.63342 8.84477 3.66816 8.76641 3.66816 8.68422V8.00183V7.31938C3.66816 7.23723 3.63345 7.1589 3.57259 7.10371C3.51104 7.04787 3.43109 7.01665 3.34799 7.01601L2.62412 7.01038C2.15503 7.00676 1.74019 7.01564 1.70225 7.03014ZM4.59528 7.06109C4.53609 7.0938 4.47015 7.16617 4.4487 7.22195C4.38813 7.37942 4.39627 8.66256 4.4587 8.798C4.54658 8.98862 4.61838 9.00228 5.53219 9.00228C6.41681 9.00228 6.49669 8.98865 6.5796 8.8237C6.63348 8.71653 6.63017 7.2806 6.57581 7.17246C6.49641 7.01448 6.41567 7.00138 5.5237 7.0015C4.77776 7.0016 4.69302 7.00704 4.59528 7.06109ZM7.54224 7.0549C7.49151 7.08345 7.43333 7.14 7.41291 7.18062C7.36238 7.2811 7.36266 8.72309 7.41322 8.8237C7.49613 8.98865 7.57601 9.00228 8.46063 9.00228C9.13346 9.00228 9.29442 8.99371 9.38061 8.95332C9.56189 8.86834 9.58313 8.76849 9.58313 8.00183C9.58313 7.23517 9.56189 7.13531 9.38061 7.05034C9.22154 6.97577 7.67613 6.97962 7.54224 7.0549ZM10.5316 7.03014C10.4937 7.04465 10.4316 7.08779 10.3936 7.12603C10.3284 7.19175 10.3247 7.23955 10.3247 8.00439V8.68422C10.3247 8.76641 10.3594 8.84477 10.4203 8.89995C10.4818 8.95574 10.5619 8.98665 10.645 8.98665H11.4111H12.1772C12.2603 8.98665 12.3403 8.95574 12.4019 8.89995C12.4628 8.84477 12.4975 8.76641 12.4975 8.68422V8.00183V7.31938C12.4975 7.23723 12.4628 7.1589 12.4019 7.10371C12.3404 7.04787 12.2604 7.01665 12.1773 7.01601L11.4535 7.01038C10.9844 7.00676 10.5695 7.01564 10.5316 7.03014ZM2.94388 8.00183V8.3301H2.58174H2.21959L2.20959 8.03544C2.20411 7.87337 2.2077 7.72164 2.21759 7.69826C2.23153 7.66537 2.31603 7.65774 2.58974 7.66465L2.94388 7.67356V8.00183ZM5.89274 8.00183V8.34573H5.5306H5.16846V8.00183V7.65792H5.5306H5.89274V8.00183ZM8.82436 8.00183V8.34573H8.46222H8.10008V8.00183V7.65792H8.46222H8.82436V8.00183ZM11.7732 8.00183V8.3301H11.4111H11.0489L11.0389 8.03544C11.0335 7.87337 11.037 7.72164 11.0469 7.69826C11.0609 7.66537 11.1454 7.65774 11.4191 7.66465L11.7732 7.67356V8.00183ZM1.69587 9.70459C1.49362 9.78432 1.47807 9.85369 1.47807 10.6763C1.47807 11.4782 1.4931 11.5506 1.67507 11.6258C1.72684 11.6472 2.06236 11.6597 2.58174 11.6597C3.10112 11.6597 3.43663 11.6472 3.4884 11.6258C3.67037 11.5506 3.6854 11.4782 3.6854 10.6763C3.6854 9.848 3.67033 9.78291 3.46005 9.70325C3.29412 9.64041 1.85587 9.6415 1.69587 9.70459ZM4.6277 9.70925C4.42969 9.79779 4.40969 9.88474 4.40969 10.6572C4.40969 11.4002 4.42997 11.5096 4.58617 11.6087C4.65529 11.6526 4.78831 11.6597 5.54091 11.6597H6.27933C6.3669 11.6597 6.45133 11.6271 6.51621 11.5683C6.58041 11.5101 6.61702 11.4275 6.61702 11.3409V10.6843C6.61702 9.80455 6.61299 9.78707 6.38943 9.70241C6.21363 9.63585 4.77949 9.64141 4.6277 9.70925ZM7.59577 9.70375C7.38038 9.78873 7.3758 9.80914 7.3758 10.6843V11.3409C7.3758 11.4275 7.41241 11.5101 7.47661 11.5683C7.54149 11.6271 7.62593 11.6597 7.71349 11.6597H8.45191C9.20451 11.6597 9.33753 11.6526 9.40665 11.6087C9.56285 11.5096 9.58313 11.4002 9.58313 10.6572C9.58313 9.62228 9.62311 9.65823 8.47426 9.66004C7.90307 9.66095 7.67558 9.67227 7.59577 9.70375ZM10.5252 9.70459C10.3005 9.7932 10.3074 9.71994 10.3074 12.0036C10.3074 14.2965 10.2995 14.2157 10.5328 14.304C10.7013 14.3678 12.1208 14.3678 12.2894 14.304C12.5227 14.2157 12.5148 14.2965 12.5148 12.0036C12.5148 9.71075 12.5227 9.7916 12.2894 9.70325C12.1235 9.64041 10.6852 9.6415 10.5252 9.70459ZM2.96112 10.6749V11.0032H2.58174H2.20235V10.6749V10.3466H2.58174H2.96112V10.6749ZM5.89274 10.6749V11.0032H5.5306H5.16846V10.6749V10.3466H5.5306H5.89274V10.6749ZM8.82436 10.6749V11.0032H8.46222H8.10008V10.6749V10.3466H8.46222H8.82436V10.6749ZM11.7905 12.0036V13.6606H11.4111H11.0317V12.0036V10.3466H11.4111H11.7905V12.0036ZM1.665 12.3833C1.49366 12.4587 1.47807 12.5377 1.47807 13.3309C1.47807 14.1593 1.49314 14.2243 1.70342 14.304C1.87197 14.3678 3.2915 14.3678 3.46005 14.304C3.67033 14.2243 3.6854 14.1593 3.6854 13.3309C3.6854 12.529 3.67037 12.4566 3.4884 12.3815C3.382 12.3375 1.7654 12.3392 1.665 12.3833ZM4.58617 12.3985C4.42997 12.4977 4.40969 12.607 4.40969 13.3501C4.40969 14.3837 4.37075 14.3484 5.51104 14.3484C6.33076 14.3484 6.45137 14.33 6.56077 14.1885C6.6092 14.1258 6.61702 14.0052 6.61702 13.323V12.6664C6.61702 12.5797 6.58041 12.4971 6.51621 12.4389C6.45133 12.3801 6.3669 12.3475 6.27933 12.3475H5.54091C4.78831 12.3475 4.65529 12.3546 4.58617 12.3985ZM7.47661 12.4389C7.41241 12.4971 7.3758 12.5797 7.3758 12.6664V13.323C7.3758 14.0052 7.38363 14.1258 7.43205 14.1885C7.54145 14.33 7.66206 14.3484 8.48178 14.3484C9.62207 14.3484 9.58313 14.3837 9.58313 13.3501C9.58313 12.607 9.56285 12.4977 9.40665 12.3985C9.33753 12.3546 9.20451 12.3475 8.45191 12.3475H7.71349C7.62592 12.3475 7.54149 12.3801 7.47661 12.4389ZM2.96112 13.3323V13.6606H2.58174H2.20235V13.3323V13.0041H2.58174H2.96112V13.3323ZM5.89274 13.3323V13.6606H5.5306H5.16846V13.3323V13.0041H5.5306H5.89274V13.3323ZM8.82436 13.3323V13.6606H8.46222H8.10008V13.3323V13.0041H8.46222H8.82436V13.3323Z" fill="#163F8E"/>
</svg>