<svg xmlns="http://www.w3.org/2000/svg" width="17" height="11" viewBox="0 0 17 11" fill="none">
<path fill-rule="evenodd" clip-rule="evenodd" d="M0.737532 0.0531588C0.518946 0.124487 0.347592 0.251424 0.208057 0.445336C0.114724 0.575029 0.00863582 0.831408 0.0393262 0.853139C0.210515 0.974314 8.46626 6.07848 8.49476 6.08076C8.51764 6.08258 10.4341 4.90755 12.7536 3.46957L16.9708 0.855048L16.9511 0.761114C16.8966 0.501666 16.6599 0.226187 16.3802 0.0966819L16.1922 0.00963577L8.55278 0.0026846C1.22031 -0.00398477 0.906329 -0.00194953 0.737532 0.0531588ZM0 5.501C0 7.41467 0.00896797 8.9804 0.0199288 8.9804C0.0458695 8.9804 5.61637 5.66426 5.6733 5.61491C5.70791 5.58491 5.14638 5.22342 2.89987 3.82949C1.35061 2.86819 0.0643701 2.06815 0.0415184 2.05162C0.0083701 2.0276 0 2.72228 0 5.501ZM14.1392 3.80685C11.8651 5.21951 11.2979 5.58485 11.3326 5.61488C11.4148 5.68614 16.977 8.98685 16.9916 8.97305C16.9996 8.96547 17.0024 7.40164 16.9977 5.49787L16.9893 2.03647L14.1392 3.80685ZM3.37129 8.17914C0.172517 10.0893 0.0502206 10.1658 0.0602514 10.2498C0.0880189 10.4825 0.343872 10.7825 0.625732 10.913L0.81376 11H8.50296H16.1922L16.3802 10.913C16.6619 10.7825 16.9179 10.4825 16.9457 10.25C16.9557 10.1661 16.8317 10.0887 13.6288 8.17767L10.3015 6.19245L9.56749 6.64666C8.69521 7.18647 8.6774 7.19564 8.50296 7.19564C8.32868 7.19564 8.31496 7.18857 7.44222 6.64832C7.03829 6.39826 6.70442 6.19411 6.70027 6.19468C6.69615 6.19521 5.1981 7.08821 3.37129 8.17914Z" fill="white"/>
</svg>