<svg xmlns="http://www.w3.org/2000/svg" width="16" height="16" viewBox="0 0 16 16" fill="none">
<path fill-rule="evenodd" clip-rule="evenodd" d="M7.52949 0.0539833C7.40228 0.0949974 7.23413 0.17003 7.15587 0.220657C6.72612 0.498731 0.403097 5.627 0.27535 5.80109C-0.0502934 6.24504 -0.0937236 7.01064 0.180539 7.47279C0.516458 8.03877 1.10922 8.35123 1.73996 8.29479L2.05484 8.26659V11.9223C2.05484 15.8903 2.04818 15.8001 2.35079 15.9362C2.45777 15.9844 3.85266 16 8.03285 16H13.5731L13.7498 15.8442L13.9264 15.6884L13.9408 11.959L13.9553 8.22974L14.3052 8.24763C14.7598 8.27086 15.1171 8.15278 15.439 7.87295C16.0638 7.32994 16.1828 6.42437 15.7148 5.77444C15.5068 5.48564 9.03504 0.313259 8.66202 0.137721C8.35936 -0.00470751 7.83198 -0.0436924 7.52949 0.0539833ZM9.45598 2.0679C13.7654 5.48857 14.7789 6.3056 14.8551 6.42052C15.0642 6.73561 14.7881 7.18836 14.3868 7.18836C14.1915 7.18836 13.974 7.02773 11.2122 4.84292C9.58151 3.55295 8.18559 2.4822 8.11009 2.46351C8.03464 2.44482 7.91019 2.45304 7.83355 2.48183C7.75692 2.51056 6.41924 3.55204 4.86101 4.79619C3.30273 6.04034 1.9676 7.09961 1.89404 7.15002C1.54882 7.38687 1.08132 7.13656 1.08132 6.71483C1.08132 6.56626 1.11885 6.45994 1.20301 6.3699C1.33633 6.22725 7.58714 1.21311 7.7613 1.10908C8.00949 0.960834 8.18992 1.06289 9.45598 2.0679ZM10.4785 5.62929L12.8717 7.51968V11.2258V14.9319H11.5212H10.1706L10.1556 12.4175L10.1405 9.90315L9.96383 9.74732L9.78719 9.59154H8.02766C6.15688 9.59154 6.03113 9.60713 5.89646 9.85562C5.86055 9.92184 5.84075 10.8417 5.84075 12.4451V14.9319H4.48864H3.13653L3.13821 11.2337L3.13994 7.53549L5.55849 5.6066C6.88875 4.54567 8.00143 3.69143 8.03118 3.7083C8.06092 3.72512 9.16225 4.58957 10.4785 5.62929ZM7.48125 5.41472C6.57084 5.73637 6.128 6.72637 6.5206 7.56219C6.69226 7.92753 6.92407 8.1711 7.27399 8.35364C7.63566 8.54226 8.27769 8.55502 8.66121 8.38119C9.68075 7.91904 9.91959 6.55729 9.11622 5.78689C8.68928 5.37749 8.01863 5.22481 7.48125 5.41472ZM8.37862 6.57256C8.59052 6.78185 8.57105 7.09683 8.33324 7.30665C8.1752 7.44609 8.12161 7.4635 7.92896 7.43797C7.39747 7.36759 7.28687 6.71569 7.76076 6.44659C7.91976 6.35633 8.22199 6.41796 8.37862 6.57256ZM9.08583 12.7958V14.9319H8.00414H6.92244V12.7958V10.6596H8.00414H9.08583V12.7958Z" fill="#163F8E"/>
</svg>