<svg xmlns="http://www.w3.org/2000/svg" width="17" height="17" viewBox="0 0 17 17" fill="none">
<path fill-rule="evenodd" clip-rule="evenodd" d="M7.52307 0.0507266C3.59308 0.533411 0.504387 3.66628 0.0976712 7.58241C0.0374025 8.1628 0.0739063 9.26174 0.171928 9.81642C0.327078 10.6947 0.583818 11.4674 0.982862 12.257L1.18336 12.6539L0.585923 14.8226C0.257317 16.0154 -0.0062736 16.9952 0.000113676 16.9999C0.00653663 17.0046 1.00734 16.7471 2.22413 16.4276C3.99551 15.9625 4.45426 15.8534 4.52569 15.8805C4.57476 15.8991 4.80759 16.0012 5.0431 16.1073C5.808 16.452 6.61126 16.6806 7.45649 16.7942C8.0439 16.8731 9.07482 16.8727 9.64622 16.7932C11.5218 16.5323 13.1974 15.708 14.5181 14.3967C15.2088 13.711 15.668 13.0838 16.1052 12.2292C16.499 11.4596 16.7768 10.6206 16.932 9.73229C17.0228 9.21308 17.0226 7.68743 16.9318 7.14332C16.7783 6.22409 16.5415 5.48967 16.1368 4.67847C14.985 2.36999 12.8581 0.724392 10.3151 0.174182C9.52232 0.00267094 8.34007 -0.0496051 7.52307 0.0507266ZM9.75327 1.51857C10.7769 1.70671 11.6257 2.04658 12.4652 2.60441C13.8984 3.5568 14.9535 5.03571 15.3705 6.67691C15.6768 7.88217 15.6527 9.2511 15.3048 10.41C14.7424 12.2839 13.402 13.8612 11.6479 14.7132C10.6281 15.2085 9.68443 15.4245 8.54004 15.4245C7.2284 15.4245 6.06567 15.1082 4.87899 14.4284L4.67917 14.314L3.36592 14.6569C2.64362 14.8456 2.04718 14.9944 2.04047 14.9878C2.03376 14.9811 2.18196 14.4194 2.36979 13.7395C2.55759 13.0596 2.71264 12.4783 2.71431 12.4478C2.71599 12.4172 2.62364 12.2406 2.5091 12.0553C0.826213 9.33306 1.26729 5.74307 3.56357 3.47264C4.70582 2.34325 6.15191 1.64919 7.77285 1.45236C8.21065 1.39919 9.3023 1.43569 9.75327 1.51857ZM5.20892 4.61307C5.00256 4.71461 4.6255 5.15722 4.46785 5.48297C4.15819 6.12283 4.16451 6.92942 4.48501 7.67629C4.87888 8.59406 5.90941 9.89724 6.92674 10.7639C7.63983 11.3713 8.23563 11.7273 9.11097 12.0687C10.0052 12.4175 10.1767 12.4577 10.7702 12.4575C11.2371 12.4573 11.3112 12.4484 11.5282 12.3672C11.8851 12.2335 12.1515 12.0652 12.4169 11.8055C12.6228 11.6041 12.6642 11.541 12.7316 11.3267C12.8157 11.0596 12.8637 10.6296 12.8261 10.4808C12.8065 10.403 12.7057 10.3398 12.1987 10.0875C11.2699 9.62533 10.8955 9.4663 10.7364 9.4663C10.6061 9.4663 10.5838 9.48219 10.4262 9.68796C10.0659 10.1583 9.73532 10.5226 9.64918 10.5441C9.54602 10.5698 9.3433 10.496 8.8751 10.2623C8.11705 9.88394 7.49859 9.37796 6.96688 8.70113C6.67749 8.33279 6.4169 7.91302 6.4169 7.81524C6.4169 7.77336 6.55106 7.56514 6.71506 7.35256C7.03646 6.93588 7.13056 6.7804 7.13056 6.66595C7.13056 6.6258 7.06087 6.4295 6.97569 6.22976C6.89052 6.02998 6.71874 5.61919 6.59396 5.31685C6.43927 4.94212 6.33069 4.73042 6.25283 4.65187L6.13857 4.53661L5.75141 4.53664C5.42687 4.53664 5.33912 4.54902 5.20892 4.61307Z" fill="white"/>
</svg>